<svg xmlns="http://www.w3.org/2000/svg" xmlns:xlink="http://www.w3.org/1999/xlink" viewBox="0 0 410 404" width="410" height="404" preserveAspectRatio="xMidYMid meet" style="width: 100%; height: 100%; transform: translate3d(0px, 0px, 0px);"><defs><clipPath id="__lottie_element_1478"><rect width="410" height="404" x="0" y="0"></rect></clipPath></defs><g clip-path="url(#__lottie_element_1478)"><g transform="matrix(0.951877236366272,0,0,0.951877236366272,436.194091796875,436.8997802734375)" opacity="0.3" style="display: block;"><g opacity="1" transform="matrix(1,0,0,1,0,0)"><path stroke-linecap="butt" stroke-linejoin="miter" fill-opacity="0" stroke-miterlimit="4" stroke="rgb(255,255,255)" stroke-opacity="1" stroke-width="1" d=" M-409.18798828125,35.874000549316406 C-410.2080078125,24.051000595092773 -410.7279968261719,12.086000442504883 -410.7279968261719,0 C-410.7284851074219,-227.24923706054688 -226.68104553222656,-411.75799560546875 0,-411.75799560546875 C0,-411.75799560546875 0,-411.75799560546875 0,-411.75799560546875 C226.68104553222656,-411.75799560546875 410.7284851074219,-227.24923706054688 410.7284851074219,0 C410.7284851074219,227.24923706054688 226.68104553222656,411.75799560546875 0,411.75799560546875 C-14.019000053405762,411.75799560546875 -27.874000549316406,411.052001953125 -41.534000396728516,409.67498779296875"></path></g></g><g transform="matrix(0.9507019519805908,0.0011658715084195137,-0.0011658715084195137,0.9507019519805908,439.95013427734375,439.1131286621094)" opacity="1" style="display: block;"><g opacity="1" transform="matrix(1,0,0,1,0,0)"><path stroke-linecap="butt" stroke-linejoin="miter" fill-opacity="0" stroke-miterlimit="4" stroke-dasharray=" 3 3" stroke-dashoffset="0" stroke="rgb(255,45,45)" stroke-opacity="1" stroke-width="1" d=" M0,-344.98651123046875 C189.92202758789062,-344.98651123046875 344.1239929199219,-190.39805603027344 344.1239929199219,0 C344.1239929199219,190.39805603027344 189.92202758789062,344.98651123046875 0,344.98651123046875 C-189.92202758789062,344.98651123046875 -344.1239929199219,190.39805603027344 -344.1239929199219,0 C-344.1239929199219,-190.39805603027344 -189.92202758789062,-344.98651123046875 0,-344.98651123046875z"></path></g></g><g transform="matrix(0.9501557350158691,0,0,0.9501557350158691,444.7362060546875,440.8992004394531)" opacity="1" style="display: block;"><g opacity="1" transform="matrix(1,0,0,1,0,0)"><path stroke-linecap="butt" stroke-linejoin="miter" fill-opacity="0" stroke-miterlimit="4" stroke="rgb(255,255,255)" stroke-opacity="1" stroke-width="1" d=" M-276.47900390625,24.23900032043457 C-277.1679992675781,16.250999450683594 -277.5199890136719,8.166000366210938 -277.5199890136719,0 C-277.5195007324219,-153.54685974121094 -153.1630096435547,-278.2149963378906 0,-278.2149963378906 C0,-278.2149963378906 0,-278.2149963378906 0,-278.2149963378906 C153.1630096435547,-278.2149963378906 277.5195007324219,-153.54685974121094 277.5195007324219,0 C277.5195007324219,153.54685974121094 153.1630096435547,278.2149963378906 0,278.2149963378906 C-9.472000122070312,278.2149963378906 -18.833999633789062,277.7380065917969 -28.062999725341797,276.8070068359375"></path></g></g><g transform="matrix(0.9500035047531128,0,0,0.9500035047531128,448.64599609375,444.8110046386719)" opacity="0.2" style="display: block;"><g opacity="1" transform="matrix(1,0,0,1,0,0)"><path stroke-linecap="butt" stroke-linejoin="miter" fill-opacity="0" stroke-miterlimit="4" stroke="rgb(255,255,255)" stroke-opacity="1" stroke-width="1" d=" M0,-213.0330047607422 C117.2790298461914,-213.0330047607422 212.50050354003906,-117.57291412353516 212.50050354003906,0 C212.50050354003906,117.57291412353516 117.2790298461914,213.0330047607422 0,213.0330047607422 C-117.2790298461914,213.0330047607422 -212.50050354003906,117.57291412353516 -212.50050354003906,0 C-212.50050354003906,-117.57291412353516 -117.2790298461914,-213.0330047607422 0,-213.0330047607422z"></path></g></g></g></svg>