<?xml version="1.0" encoding="UTF-8" standalone="no"?>
<!DOCTYPE svg PUBLIC "-//W3C//DTD SVG 1.1//EN" "http://www.w3.org/Graphics/SVG/1.1/DTD/svg11.dtd">
<!-- Created with Vectornator (http://vectornator.io/) -->
<svg height="100%" stroke-miterlimit="10" style="fill-rule:nonzero;clip-rule:evenodd;stroke-linecap:round;stroke-linejoin:round;" version="1.1" viewBox="0 0 1024 768" width="100%" xml:space="preserve" xmlns="http://www.w3.org/2000/svg" xmlns:vectornator="http://vectornator.io" xmlns:xlink="http://www.w3.org/1999/xlink">
<defs/>
<g id="Layer-1" vectornator:layerName="Layer 1">
<path d="M97.9119 387.148L154.741 386.246L154.84 392.495C155.301 421.528 151.303 442.492 142.848 455.388C133.63 469.469 119.778 476.656 101.291 476.949C83.1288 477.237 68.7643 470.628 58.197 457.123C47.6928 443.485 42.2496 424.624 41.8673 400.539C41.4799 376.128 46.3497 356.81 56.4768 342.585C66.6039 328.36 80.6507 321.105 98.6172 320.819C122.442 320.441 139.923 332.6 151.058 357.296L111.839 372.374C111.178 367.631 109.768 363.893 107.608 361.16C105.449 358.427 102.774 357.086 99.5842 357.137C88.3877 357.314 83.0338 372.798 83.5225 403.589C83.7302 416.673 85.1179 426.158 87.6855 432.042C90.2532 437.927 94.2385 440.826 99.6415 440.74C101.79 440.706 103.734 440.154 105.475 439.085C107.216 438.015 108.674 436.527 109.848 434.62C111.023 432.713 111.93 430.404 112.571 427.691C113.211 424.979 113.505 421.963 113.453 418.643L98.4155 418.882L97.9119 387.148Z" fill="#000000" opacity="1" stroke="none" vectornator:layerName="Text 1"/>
<path d="M351.402 474.5L351.402 323.719L386.558 323.719C406.675 323.719 422.333 329.122 433.53 339.93C448.244 354.057 455.601 373.816 455.601 399.207C455.601 424.207 449.383 443.51 436.948 457.117C426.336 468.706 410.516 474.5 389.488 474.5L351.402 474.5ZM392.124 438.074C406.708 437.358 413.999 424.793 413.999 400.379C413.999 388.335 412.144 378.829 408.433 371.863C404.722 364.832 399.709 361.316 393.394 361.316L392.124 361.316L392.124 438.074Z" fill="#000000" opacity="1" stroke="none" vectornator:layerName="Text 4"/>
<path d="M227.408 474.5L156.118 474.5L156.118 323.719L196.841 323.719L196.841 438.27L227.408 438.27L227.408 474.5Z" fill="#000000" opacity="1" stroke="none" vectornator:layerName="Text 2"/>
<path d="M630.714 473.212L588.626 473.662L585.395 454.555L557.955 454.848L554.839 474.023L512.752 474.473L547.369 323.313L597.171 322.781L630.714 473.212ZM580.264 422.284L577.44 404.735C577.374 404.67 577.235 403.793 577.021 402.102C576.876 400.671 576.132 395.015 574.789 385.133C574.647 384.028 574.468 382.516 574.252 380.597C574.037 378.679 573.75 376.257 573.393 373.331L571.972 359.087C571.856 360.456 571.693 361.988 571.484 363.683C571.274 365.378 571.05 367.236 570.811 369.257C570.398 373.298 570.103 376.1 569.924 377.665C569.745 379.229 569.625 380.175 569.564 380.501L566.927 398.792L563.078 422.467L580.264 422.284Z" fill="#000000" opacity="1" stroke="none" vectornator:layerName="Text 3"/>
<path d="M498.505 474.5L457.783 474.5L457.783 323.719L498.505 323.719L498.505 474.5Z" fill="#000000" opacity="1" stroke="none" vectornator:layerName="Text 5"/>
<path d="M354.611 474.5L312.521 474.5L309.493 455.359L282.052 455.359L278.732 474.5L236.642 474.5L272.872 323.719L322.677 323.719L354.611 474.5ZM304.708 423.035L302.072 405.457C302.006 405.392 301.876 404.513 301.681 402.82C301.551 401.388 300.867 395.724 299.63 385.828C299.5 384.721 299.337 383.208 299.142 381.287C298.947 379.367 298.686 376.941 298.361 374.012L297.091 359.754C296.961 361.121 296.782 362.651 296.554 364.344C296.326 366.036 296.082 367.892 295.822 369.91C295.366 373.947 295.04 376.746 294.845 378.309C294.65 379.871 294.519 380.815 294.454 381.141L291.622 399.402L287.521 423.035L304.708 423.035Z" fill="#000000" opacity="1" stroke="none" vectornator:layerName="Text 6"/>
<path d="M680.356 474.5L639.633 474.5L639.633 359.852L617.172 359.852L617.172 323.719L703.696 323.719L703.696 359.852L680.356 359.852L680.356 474.5Z" fill="#000000" opacity="1" stroke="none" vectornator:layerName="Text 7"/>
<path d="M815.13 399.598C815.13 422.579 809.889 441.264 799.407 455.652C788.991 469.975 775.416 477.137 758.685 477.137C743.841 477.137 731.113 471.635 720.501 460.633C707.155 446.701 700.481 425.802 700.481 397.937C700.481 371.245 707.448 350.835 721.38 336.707C731.731 326.225 744.004 320.984 758.196 320.984C775.579 320.984 789.414 328.081 799.7 342.273C809.987 356.466 815.13 375.574 815.13 399.598ZM772.845 399.891C772.845 372.612 768.027 358.973 758.392 358.973C753.574 358.973 749.733 362.553 746.868 369.715C744.069 376.355 742.669 386.121 742.669 399.012C742.669 411.707 743.987 421.554 746.624 428.553C749.261 435.551 752.923 439.051 757.61 439.051C762.428 439.051 766.139 435.6 768.743 428.699C771.478 421.798 772.845 412.195 772.845 399.891Z" fill="#000000" opacity="1" stroke="none" vectornator:layerName="Text 8"/>
<path d="M923.544 474.5L879.501 474.5L859.384 420.789C859.189 419.878 858.847 418.673 858.359 417.176C857.871 415.678 857.268 413.888 856.552 411.805L856.845 421.766L856.845 474.5L816.318 474.5L816.318 323.719L858.017 323.719C876.376 323.719 890.113 327.332 899.228 334.559C910.816 343.803 916.611 356.954 916.611 374.012C916.611 392.241 908.831 404.839 893.271 411.805L923.544 474.5ZM857.04 393.543L859.775 393.543C864.462 393.543 868.369 391.753 871.494 388.172C874.619 384.591 876.181 380.034 876.181 374.5C876.181 363.237 870.289 357.605 858.505 357.605L857.04 357.605L857.04 393.543Z" fill="#000000" opacity="1" stroke="none" vectornator:layerName="Text 9"/>
<path d="M115.12 303.5L74.3975 303.5L74.3975 188.852L51.9366 188.852L51.9366 152.719L138.46 152.719L138.46 188.852L115.12 188.852L115.12 303.5Z" fill="#000000" opacity="1" stroke="none" vectornator:layerName="Text 10"/>
<path d="M240.598 303.5L199.875 303.5L199.875 242.855L180.441 242.855L180.441 303.5L139.719 303.5L139.719 152.719L180.441 152.719L180.441 206.039L199.875 206.039L199.875 152.719L240.598 152.719L240.598 303.5Z" fill="#000000" opacity="1" stroke="none" vectornator:layerName="Text 11"/>
<path d="M246.017 303.5L246.017 152.719L321.7 152.719L321.7 188.168L286.739 188.168L286.739 210.141L318.087 210.141L318.087 244.223L286.739 244.223L286.739 267.27L321.7 267.27L321.7 303.5L246.017 303.5Z" fill="#000000" opacity="1" stroke="none" vectornator:layerName="Text 12"/>
<path d="M96.1141 588.293L152.95 588.293L152.95 594.543C152.95 623.579 148.621 644.478 139.962 657.238C130.522 671.171 116.557 678.137 98.0672 678.137C79.9032 678.137 65.6454 671.301 55.2938 657.629C45.0073 643.827 39.8641 624.882 39.8641 600.793C39.8641 576.379 45.0399 557.141 55.3915 543.078C65.743 529.016 79.9032 521.984 97.8719 521.984C121.7 521.984 138.985 534.419 149.727 559.289L110.274 573.742C109.688 568.99 108.337 565.23 106.222 562.463C104.106 559.696 101.453 558.312 98.2625 558.312C87.0646 558.312 81.4657 573.71 81.4657 604.504C81.4657 617.59 82.7027 627.095 85.1766 633.02C87.6506 638.944 91.5894 641.906 96.993 641.906C99.1415 641.906 101.095 641.385 102.852 640.344C104.61 639.302 106.091 637.837 107.296 635.949C108.5 634.061 109.444 631.766 110.128 629.064C110.811 626.363 111.153 623.352 111.153 620.031L96.1141 620.031L96.1141 588.293Z" fill="#000000" opacity="1" stroke="none" vectornator:layerName="Text 13"/>
<path d="M240.911 675.5L200.188 675.5L200.188 611.633L162.786 524.719L205.266 524.719L212.591 547.082C214.023 551.444 215.309 555.643 216.448 559.68C217.587 563.716 218.613 567.59 219.524 571.301C221.022 565.767 222.324 560.998 223.431 556.994C224.537 552.99 225.514 549.751 226.36 547.277L233.782 524.719L275.97 524.719L240.911 611.633L240.911 675.5Z" fill="#000000" opacity="1" stroke="none" vectornator:layerName="Text 14"/>
<path d="M436.716 675.5L394.138 675.5L391.111 606.75L389.841 579.309C389.386 584.582 388.865 589.611 388.279 594.396C387.693 599.182 386.977 603.82 386.13 608.312L373.337 675.5L340.134 675.5L329.197 608.215C328.546 604.309 327.667 597.603 326.56 588.098C326.43 586.665 326.137 583.736 325.681 579.309L324.705 607.141L321.091 675.5L277.732 675.5L295.31 524.719L345.994 524.719L354.49 575.5C355.206 579.667 355.841 584.191 356.394 589.074C356.947 593.957 357.452 599.263 357.908 604.992C358.754 595.422 359.926 586.861 361.423 579.309L371.775 524.719L422.068 524.719L436.716 675.5Z" fill="#000000" opacity="1" stroke="none" vectornator:layerName="Text 15"/>
<path d="M500.996 655.383C500.996 661.503 498.75 666.743 494.257 671.105C489.895 675.467 484.557 677.648 478.242 677.648C471.992 677.648 466.556 675.435 461.933 671.008C457.441 666.516 455.195 661.079 455.195 654.699C455.195 648.449 457.408 643.111 461.836 638.684C466.263 634.257 471.601 632.043 477.851 632.043C484.296 632.043 489.765 634.322 494.257 638.879C498.75 643.371 500.996 648.872 500.996 655.383Z" fill="#000000" opacity="1" stroke="none" vectornator:layerName="Text 17"/>
<path d="M936.798 470.789L936.798 423.426C944.806 434.363 953.465 439.832 962.775 439.832C966.29 439.832 969.155 438.904 971.369 437.049C973.582 435.193 974.689 432.866 974.689 430.066C974.689 426.03 972.28 422.091 967.462 418.25L960.822 413.074C956.395 409.754 952.619 406.45 949.494 403.162C946.369 399.874 943.83 396.489 941.876 393.006C939.923 389.523 938.491 385.926 937.58 382.215C936.668 378.504 936.212 374.598 936.212 370.496C936.212 363.465 937.84 356.108 941.095 348.426C942.723 344.845 944.611 341.574 946.759 338.611C948.908 335.649 951.382 333.029 954.181 330.75C961.863 324.24 971.141 320.984 982.013 320.984C991.714 320.984 1001.48 323.556 1011.31 328.699L1011.31 374.793C1007.99 369.65 1004.21 365.597 999.982 362.635C995.75 359.673 991.583 358.191 987.482 358.191C984.357 358.191 981.785 359.103 979.767 360.926C977.684 362.684 976.642 364.799 976.642 367.273C976.642 371.31 979.409 375.314 984.943 379.285L991.388 384.07C999.982 390.255 1006.13 396.603 1009.85 403.113C1013.62 409.624 1015.51 417.241 1015.51 425.965C1015.51 440.809 1010.98 453.048 1001.93 462.684C992.886 472.319 981.427 477.137 967.56 477.137C957.99 477.137 947.736 475.021 936.798 470.789Z" fill="#000000" opacity="1" stroke="none" vectornator:layerName="Text 16"/>
</g>
</svg>
